<?xml version="1.0" encoding="UTF-8"?>
<svg xmlns="http://www.w3.org/2000/svg" xmlns:xlink="http://www.w3.org/1999/xlink" version="1.1" id="Layer_1" x="0px" y="0px" viewBox="0 0 358.88 106.96" style="enable-background:new 0 0 358.88 106.96;" xml:space="preserve">
<style type="text/css">
	.st0{fill:#4AA566;}
	.st1{fill:#FFFFFF;}
</style>
<g>
	<g>
		<g>
			<polygon class="st0" points="16.49,103.96 76.67,103.96 76.67,86.9 5.29,86.9    "></polygon>
			<polygon class="st0" points="16.49,64.73 70.09,64.73 70.09,47.66 5.29,47.66    "></polygon>
			<polygon class="st0" points="16.49,20.48 73.22,20.48 73.22,3 5.29,3    "></polygon>
			<g>
				<path class="st0" d="M161.03,35.57c0,17.95-14.62,32.57-32.57,32.57h-19.69v35.83H93.59V52.29h34.87      c9.22,0,16.72-7.5,16.72-16.72s-7.5-16.72-16.72-16.72h-26.1L90.93,3h37.53C146.41,3,161.03,17.61,161.03,35.57z"></path>
			</g>
		</g>
	</g>
	<g>
		<path class="st1" d="M189.36,25.36v4.13h9.41v6.56h-9.41v4.24h11.43v7.37h-19.2V18.05h19.2v7.31    C200.79,25.36,189.36,25.36,189.36,25.36z"></path>
		<path class="st1" d="M212.36,32.28l-8.89-14.24h9l4.54,7.83l4.52-7.83h9l-8.93,14.22l9.42,15.4h-9.06l-4.98-8.75l-4.96,8.75h-9.06    L212.36,32.28z"></path>
		<path class="st1" d="M233.99,18.05h11.19c6.1,0,11.19,4.59,11.19,10.38c0,5.71-4.98,10.51-11.19,10.51h-3.33v8.73h-7.86    L233.99,18.05L233.99,18.05z M248.78,28.46c0-1.8-1.51-3.16-3.6-3.16h-3.33v6.38l3.33,0.02    C247.29,31.72,248.78,30.28,248.78,28.46z"></path>
		<path class="st1" d="M275.53,47.66l-7.92-12.86v12.86h-7.86l-0.04-29.62h11.24c6.39,0,10.97,4.32,10.97,9.63    c0,3.69-2.22,6.78-5.13,8.1l7.94,11.89C284.73,47.66,275.53,47.66,275.53,47.66z"></path>
		<path class="st1" d="M267.57,31.05l3.21,0.02    c1.67,0.02,3.2-1.16,3.2-2.98c0-1.84-1.54-2.98-3.2-2.98h-3.21V31.05z"></path>
		<path class="st1" d="M295.33,25.36v4.13h9.41v6.56h-9.41v4.24h11.43v7.37h-19.2V18.05h19.2v7.31    C306.76,25.36,295.33,25.36,295.33,25.36z"></path>
		<path class="st1" d="M309.59,42.65l4.76-4.67c1.23,1.82,3.53,2.92,6.01,2.92c1.67,0,3.31-0.61,3.31-1.82    c0-1.52-3.03-2.87-5.93-4.15c-3.75-1.62-6.96-4.08-6.96-8.54c0-5.13,4.87-8.78,10.49-8.78c4.52,0,8.05,2.13,9.2,5.05l-4.54,4.37    c-0.88-1.56-3.16-2.24-4.57-2.24c-1.62,0-2.77,0.83-2.77,1.84c0,1.36,2.09,1.8,5.29,3.14c4.63,1.95,7.7,4.78,7.7,9.15    c0,5.64-5.25,9.15-11.19,9.15C315.51,48.07,311.08,45.92,309.59,42.65z"></path>
		<path class="st1" d="M333.62,42.65l4.76-4.67c1.23,1.82,3.53,2.92,6.01,2.92c1.67,0,3.31-0.61,3.31-1.82    c0-1.52-3.03-2.87-5.93-4.15c-3.75-1.62-6.96-4.08-6.96-8.54c0-5.13,4.87-8.78,10.49-8.78c4.52,0,8.05,2.13,9.2,5.05l-4.54,4.37    c-0.88-1.56-3.16-2.24-4.57-2.24c-1.62,0-2.77,0.83-2.77,1.84c0,1.36,2.09,1.8,5.29,3.14c4.63,1.95,7.7,4.78,7.7,9.15    c0,5.64-5.25,9.15-11.19,9.15C339.54,48.07,335.11,45.92,333.62,42.65z"></path>
		<path class="st1" d="M181.59,55.8h11.19c6.1,0,11.19,4.59,11.19,10.38c0,5.71-4.98,10.51-11.19,10.51h-3.33v8.73h-7.86V55.8z     M196.38,66.21c0-1.8-1.51-3.16-3.6-3.16h-3.33v6.38l3.33,0.02C194.89,69.47,196.38,68.03,196.38,66.21z"></path>
		<path class="st1" d="M223.13,85.41l-7.92-12.86v12.86h-7.86l-0.04-29.62h11.24c6.39,0,10.97,4.32,10.97,9.63    c0,3.69-2.22,6.78-5.13,8.1l7.94,11.89C232.33,85.41,223.13,85.41,223.13,85.41z M215.17,68.8l3.22,0.02    c1.67,0.02,3.2-1.16,3.2-2.98c0-1.84-1.54-2.98-3.2-2.98h-3.22V68.8z"></path>
		<path class="st1" d="M233.88,70.64c0-8.89,7.05-15.63,16.26-15.63c9.21,0,16.26,6.74,16.26,15.63c0,8.82-7.05,15.52-16.28,15.52    C240.91,86.17,233.88,79.46,233.88,70.64z M258.44,70.59c0-4.57-3.6-8.1-8.3-8.1s-8.3,3.53-8.3,8.1c0,4.56,3.6,8.07,8.3,8.07    S258.44,75.14,258.44,70.59z"></path>
	</g>
</g>
</svg>
